<?xml version="1.0" encoding="utf-8"?>
<!-- Generator: Adobe Illustrator 25.2.0, SVG Export Plug-In . SVG Version: 6.00 Build 0)  -->
<svg version="1.1" id="Layer_1" xmlns="http://www.w3.org/2000/svg" xmlns:xlink="http://www.w3.org/1999/xlink" x="0px" y="0px"
	 viewBox="0 0 301.1 132.3" style="enable-background:new 0 0 301.1 132.3;" xml:space="preserve">
<style type="text/css">
	.st0{fill:#FFFFFF;}
</style>
<path class="st0" d="M301.1,131.8c-0.1,0.1-0.2,0.3-0.4,0.4c-0.4,0.3-0.9,0.3-1.2-0.1c0,0-0.1-0.1-0.1-0.1c-0.3-0.3-0.2-0.8,0.1-1.1
	c0,0,0,0,0.1,0c0.4-0.3,0.9-0.3,1.2,0.1c0,0,0.1,0.1,0.1,0.1c0.1,0.1,0,0.2,0.2,0.3V131.8z"/>
<path class="st0" d="M263.1,132.3c-0.5-0.1-0.9-0.3-0.9-0.9c0-0.5,0.4-0.9,0.9-0.9c0.5,0,0.9,0.4,0.9,0.9
	C264,132,263.7,132.3,263.1,132.3z"/>
<g>
	<path class="st0" d="M216.7,240.4c-0.4,1.2-0.6,2.5-0.7,3.7c-0.2,0.9-0.4,1.8-0.5,2.8c-0.1,0.6-0.3,0.7-0.9,0.7
		c-5.1-0.1-10.1-0.1-15.2-0.1c-2.8,0-5.5,0-8.3,0.1c-0.6,0-0.8-0.2-0.8-0.7s0.1-1,0.8-1c0.7,0,1.4-0.1,2-0.2c1-0.1,1.7-0.9,1.9-1.9
		c0.1-0.6,0.2-1.2,0.2-1.8c0-7.1,0-14.1,0-21.2v-0.5c-0.1-2.3-0.7-3-3-3.3c-0.3-0.1-0.7-0.1-1-0.1c-0.7,0.1-0.9-0.3-0.9-0.9
		s0.2-0.8,0.9-0.8c3.2,0.1,6.4,0.2,9.7,0.1c1,0,2.1,0,3.1-0.1c0.7,0,0.8,0.3,0.8,0.9s-0.2,0.9-0.8,0.9c-0.4,0-0.9,0-1.3,0.1
		c-1.9,0.2-2.6,0.9-2.7,2.8c0,0.5,0,1.1,0,1.6v20.1c0,0.4,0,0.8,0,1.2c0,1.4,1,2.5,2.4,2.6c0.1,0,0.2,0,0.3,0c1.4,0,2.8,0,4.2,0
		c3.5,0.2,6.7-2.1,7.7-5.4c0.5-1.2,1.1-1.4,2.2-0.6L216.7,240.4z"/>
	<path class="st0" d="M37.2,203.4c-1.4,0.9-3,1.4-4.7,1.5c-6,0.8-12.1,1.1-18.2,0.8c-4.8-0.1-9.7-0.3-14.5-0.8
		c-5.6-0.4-11.1-1.3-16.5-2.8c-1.1-0.3-2.2-0.8-3.2-1.5l5.6-2.7l1.3-0.6c0.2-0.1,0.5-0.2,0.5-0.5c0-0.3-0.3-0.3-0.5-0.4
		c-3.6-1.6-7-3.4-10.4-5.4c-4.5-2.6-8.9-5.4-13.6-7.5c-1.8-0.8-3.6-1.5-5.5-2.2c0.5-0.5,1-0.2,1.5-0.2c4.9,0.6,9.2,2.6,13.7,4.5
		c5.1,2.2,10.1,4.6,15.3,6.5c3.5,1.3,7.2,2.1,10.9,2.1c0.2,0,0.4,0,0.6,0.1c0.3,0.1,0.6,0.1,0.7,0.5c0.1,0.3-0.3,0.4-0.5,0.6
		c-2.1,1.3-4.3,2.6-6.4,3.9c-0.2,0.2-0.7,0.2-0.6,0.6s0.5,0.4,0.8,0.5c3.3,0.8,6.6,1.4,10,1.9c10.6,1.4,21.2,1.3,31.9,1.3
		L37.2,203.4z"/>
	<path class="st0" d="M97.3,216.1c-1.6-0.6-3.2-0.9-4.9-0.9c-4-0.2-8,0.5-12,0.3c-1-0.1-2.1,0-3.1-0.1c-0.6,0-0.8,0.3-0.8,0.8
		c0,0.5,0.3,0.9,1,0.9c3.2,0.1,3.9,0.8,3.9,4c0,6.9,0,13.9,0,20.8c0,0.7,0,1.3-0.2,2c-0.2,0.9-0.9,1.7-1.8,1.8
		c-0.7,0.1-1.4,0.2-2.1,0.2c-0.6,0-0.8,0.4-0.8,0.9c0,0.5,0.2,0.8,0.9,0.8c4.5,0,9,0,13.5,0c0.6,0,0.8-0.1,0.8-0.7s0-1-0.8-1
		c-0.8,0-1.6-0.1-2.4-0.2c-1.2-0.1-2.2-1-2.3-2.2c0-0.1-0.1-0.2-0.1-0.4c0-3.3,0-6.6,0-10c2.1,0.5,4.3,0.6,6.4,0.3
		c3.4-0.3,6.5-1.4,8.6-4.3C104.3,224.8,103.9,218.4,97.3,216.1z M97.8,226.5c-0.6,3-2.3,4.6-5.7,5.1c-1.8,0.2-3.6,0.2-5.4,0
		c-0.5,0-0.7-0.2-0.7-0.8c0-1.8,0-3.7,0-5.6c0-1.7,0-3.3,0-5c-0.2-1.6,1-3.1,2.6-3.3c1.8-0.4,3.6-0.3,5.4,0.2c1.9,0.5,3.3,2.1,3.7,4
		C98.2,223,98.2,224.8,97.8,226.5z"/>
	<path class="st0" d="M74.6,245.8c-1.9,0-3.7-1.2-4.2-3.1c-2.2-5.9-4.6-11.8-6.9-17.8l-4-10.1c-0.7,0.3-1.4,0.6-2.1,0.8
		c-0.6,0.1-1.1,0.5-1.3,1.1c-3.8,8.4-7.7,16.8-11.5,25.3c-1,2.3-2.4,3.9-5.1,3.9c-0.7,0-0.7,0.5-0.7,1s0.2,0.7,0.8,0.7
		c3.5,0,7,0,10.5,0c0.6,0,0.8-0.2,0.8-0.7c0-0.6-0.1-1-0.8-1c-0.7,0-1.4-0.1-2.1-0.3c-1.1-0.4-1.4-1-1-2.1c0.9-2.1,1.8-4.2,2.6-6.4
		c0.3-1,1.2-1.7,2.3-1.6c3.5,0,7,0,10.5,0c0.4-0.1,0.7,0.2,0.8,0.6c0.9,2.6,1.9,5.2,2.9,7.7c0.3,0.9,0.1,1.4-0.8,1.7
		c-0.8,0.3-1.7,0.4-2.6,0.4c-0.8,0-0.7,0.5-0.7,1.1c0,0.5,0.3,0.6,0.8,0.6c4,0,8,0,12,0c0.6,0,0.8-0.2,0.8-0.8
		C75.6,246,75.2,245.9,74.6,245.8z M61.4,233.4c-3,0-5.9,0-8.9,0c-1.1,0-1.2-0.1-0.8-1.2c1.6-3.8,3.3-7.6,4.9-11.4
		c0.1-0.3,0.1-0.6,0.4-0.8c0.4,0.1,0.4,0.5,0.4,0.8c1.5,3.9,2.9,7.9,4.4,11.8C62.1,233.2,62.2,233.4,61.4,233.4z"/>
	<path class="st0" d="M188.2,245.8c-2,0-3.8-1.3-4.4-3.2c-3.3-8.7-6.8-17.4-10.1-26.1c-0.6-1.6-0.6-1.6-2.2-1
		c-0.1,0.1-0.3,0.1-0.5,0.1c-0.9,0-1.2,0.6-1.5,1.3c-3.8,8.4-7.7,16.9-11.6,25.3c-1,2.1-2.4,3.6-4.9,3.6c-0.7,0-0.8,0.5-0.8,1
		c0,0.5,0.3,0.7,0.8,0.7c3.5,0,7,0,10.4,0c0.6,0,0.9-0.1,0.9-0.7c0-0.6-0.2-1-0.9-1c-0.6,0-1.1-0.1-1.7-0.2c-1.5-0.3-1.8-1-1.2-2.4
		c0.8-2,1.7-4,2.4-6c0.3-1.2,1.4-1.9,2.6-1.8c3.4,0,6.8,0,10.2,0c0.4-0.1,0.8,0.2,0.9,0.6c0.9,2.5,1.8,4.9,2.8,7.4
		c0.5,1.3,0.1,1.9-1.2,2.1c-0.7,0.1-1.5,0.2-2.2,0.2c-0.7,0.1-0.6,0.5-0.6,1s0.1,0.8,0.7,0.7c2,0,4.1,0,6.1,0s4.1,0,6.1,0
		c0.6,0,0.7-0.2,0.8-0.7C189.2,246.2,189,245.9,188.2,245.8z M165.7,233.4c-0.5,0-1,0-0.7-0.8l5.4-12.5c0,0,0.1-0.1,0.1-0.1
		c0.4,0.5,4.4,10.8,5.1,13.4C172.3,233.4,169,233.4,165.7,233.4z"/>
	<path class="st0" d="M139,215.5c4.6,0,9.3-0.1,13.9-0.4c0.7,0,0.9,0.1,0.9,0.8c0.1,1.9,0.2,3.8,0.6,5.7c0.1,0.4,0.1,0.8-0.4,0.8
		c-0.6,0-1.2,0.5-1.4-0.4c-1-3.6-3.6-4.5-6.9-4.6c-0.3,0-0.7,0-1,0c-1.8,0-2.5,0.6-2.8,2.3c-0.1,0.7-0.2,1.5-0.2,2.2
		c0,6.6,0,13.2,0,19.9c0,0.1,0,0.1,0,0.2c0,2.8,0.8,3.6,3.6,3.8c0.3,0,0.6,0,0.9,0c0.7,0,0.9,0.3,0.9,1c0,0.6-0.4,0.7-0.9,0.7
		c-4.6,0-9.1,0-13.6,0c-0.6,0-0.9-0.2-0.9-0.8s0.2-0.9,0.9-0.9c0.8,0,1.5,0,2.2-0.2c1.2-0.1,2.2-1.1,2.2-2.4
		c0.1-0.6,0.1-1.1,0.1-1.7c0-6.5,0-12.9,0-19.4c0-0.9-0.1-1.9-0.3-2.8c-0.1-1.2-1.2-2.1-2.5-2c0,0-0.1,0-0.1,0c-1.3,0-2.5,0-3.8,0.1
		c-2.5,0.2-4.6,1.9-5.3,4.4c-0.3,0.7-1,1-1.7,0.7c-0.1,0-0.2-0.1-0.2-0.1c-0.3-0.2-0.1-0.4-0.1-0.7c0.5-2,0.9-4,1.1-6
		c0.1-0.7,0.3-0.8,0.9-0.8C129.8,215.4,134.4,215.5,139,215.5z"/>
	<path class="st0" d="M24,248c-4.5-0.1-7.7-0.6-10.6-2.2c-5.2-3-7.4-7.8-7.5-13.6c-0.3-8.1,5.3-15.2,13.2-16.9
		c4.2-0.8,8.5-0.5,12.5,1c0.6,0.3,1.2,0.5,1.9,0.6c1.3,0.1,1.6,0.8,1.7,1.9c0.2,1.8,0.5,3.6,0.8,5.4c0.1,0.6-0.1,0.9-0.7,1
		s-1,0.1-1.2-0.6c-0.9-3-3-5.4-5.8-6.7c-7.6-3.2-13.9,0.9-16.1,6.5c-2.4,5.5-1.7,11.9,1.9,16.7c2.8,4,6.8,5.5,11.6,4.8
		c3.5-0.5,6.7-2.2,9.2-4.7c0.1-0.1,0.2-0.2,0.3-0.3c0.5-0.4,0.8-0.1,1.2,0.2c0.4,0.3,0.1,0.7-0.2,0.9C32.7,245.9,28.3,248.1,24,248z
		"/>
	<path class="st0" d="M-62.4,206.4c4.9,1.3,9,0.3,12-3.8c2.4-3.2,1.8-6.7,0.7-10.2c0.4-0.2,0.6,0.2,0.8,0.5c4.7,5.2,2,13-3.7,15.4
		c-0.7,0.3-1.4,0.6-2.1,0.7c-6.1,1.4-10.7,5.1-14.8,9.6c-0.5,0.5-0.8,1.1-1.1,1.8c-0.3,0.9-0.9,1.7-1.8,2.1
		c-1.1,0.7-2.3,1.2-3.5,1.4c-1.5,0.3-3.1,0-4.4-1c-1.1-0.8-2-1.7-2.8-2.7c-1.5-1.6-1.8-4-0.7-6c2-4.3,3.8-8.7,6-12.9
		c1.1-2,1.4-4.3,0.8-6.5c-0.3-1.2,0.2-2.4,1.3-3c2.7-1.7,5.4-3.2,8.1-4.9c0.3-0.2,0.6-0.1,0.8,0.1c0,0,0,0,0,0
		c0.4,0.4-0.1,0.5-0.3,0.6c-1.8,1.4-3.6,2.6-5.5,3.9c-0.4,0.2-0.7,0.5-1.1,0.8c-0.8,0.5-1.1,1.5-0.8,2.3c0.6,2.2,0.3,4.6-0.8,6.5
		c-1.5,3.2-3.1,6.3-4.7,9.5c-0.9,1.7-1.7,3.5-2.6,5.2c-0.6,1-0.4,2.3,0.3,3.2c0.6,0.7,1.3,1.3,1.4,2.3c0,0.1,0.1,0.3,0.2,0.2
		c0.8-0.4,1.1,0.2,1.5,0.6c0.5,0.4,1.2,0.5,1.8,0.4c1.8-0.3,3.5-1.4,4.3-3c2.1-3.6,4.9-6.8,8.3-9.1c0.6-0.4,1.2-0.9,1.8-1.3
		c1.1-0.8,1.2-1.3,0.4-2.4L-62.4,206.4z"/>
	<path class="st0" d="M-1.8,188.6c3.1-2.6,6.7-4.5,10.6-5.4c5.4-1.4,11-2,16.6-1.7c3.6,0.1,7.1,0.7,10.7,1
		c5.6,0.6,11.3,0.5,16.9-0.1c6.6-0.7,13-2.3,19.1-4.9l1.6-0.7c-0.4,0.5-0.8,0.9-1.3,1.2c-5.1,3.3-10.7,5.6-16.7,6.8
		c-8.1,1.6-16.4,1.8-24.6,0.5c-8.7-1.2-17.4-1.5-26,0.8c-2.3,0.7-4.5,1.5-6.6,2.7C-1.8,188.9-1.8,188.8-1.8,188.6z"/>
	<path class="st0" d="M115.2,231.5c0,3.8-0.1,7.5,0,11.3c0,2.2,0.9,2.9,3,3c0.3,0,0.6,0,0.9,0c0.8,0,0.9,0.4,0.9,1s-0.4,0.7-0.9,0.7
		c-4.2,0-8.4,0-12.6,0c-0.6,0-0.9-0.1-0.9-0.7s0.1-1,0.8-1c0.7,0,1.4-0.1,2.1-0.2c1-0.2,1.7-0.9,1.9-1.9c0.1-0.7,0.2-1.4,0.2-2.1
		v-20.3c0-3.3-0.7-4-4-4.1c-0.7,0-0.9-0.3-0.9-1s0.2-0.8,0.8-0.8c1.3,0,2.6,0,3.9,0.1c2.9,0.1,5.8,0,8.7-0.1c0.6,0,0.9,0.1,0.9,0.8
		c0,0.7-0.2,0.9-0.9,0.9c-3.2,0.1-3.9,0.9-4,4.1c0,3.4,0,6.9,0,10.3L115.2,231.5z"/>
	<path class="st0" d="M-42,243.2c1.2,0.2,2.3,0.3,3.4,0.5c0.3,0,0.6,0.2,0.8,0.4l5.2,8.2l-4.6,0.5c-1.1,0.1-2.2,0.2-3.3,0.4
		c-0.7,0.1-1.4,0-2-0.4c-3.8-2-7.7-4-11.5-6c-0.5-0.2-0.9-0.7-1.1-1.3c-2.2-7.6-4.2-15.2-6.1-22.8c-0.2-0.6,0-1.2,0.5-1.6
		c1.5-1.3,3-2.6,4.5-3.9c0.3-0.3,0.7-0.5,1.2-0.4c2,0.3,3.9,0.7,5.9,1.2c-0.4,0-0.8,0.1-1.2,0.1c-1.1,0.1-2.1,0.1-3.2,0
		c-1.1-0.2-2.2,0.3-2.9,1.2c-0.7,0.9-1.6,1.8-2.4,2.6c-0.3,0.3-0.4,0.7-0.2,1c2.3,6.9,4.5,13.9,6.5,21c0.1,0.4,0.3,0.7,0.7,0.8
		c3.5,1.9,6.9,3.9,10.4,5.8c0.2,0.1,0.4,0.2,0.6,0.2c1.6,0,3.2,0,5,0c-1-2.2-1.9-4-2.8-5.9c-0.2-0.3-0.4-0.3-0.7-0.4l-3-1
		C-42.3,243.2-42.2,243.1-42,243.2z"/>
	<path class="st0" d="M79.3,261.7h4.6c0.4,0,0.7,0,0.7-0.5c0-1.8,0-3.5-0.1-5.3c-0.1-1.4-0.4-1.6-1.8-1.8c-0.3-0.1-0.8,0.1-0.8-0.5
		c0-0.3,0-0.6,0.5-0.6c2.4,0,4.7,0,7.1,0c0.4,0,0.5,0.1,0.5,0.5c0,0.4,0,0.5-0.4,0.6c-2.2,0.5-2.3,0.5-2.3,2.8c0,4.3,0,8.7,0,13
		c0,1.5,0.4,1.8,1.8,2.1c0.3,0.1,0.8-0.2,0.8,0.5c0,0.4-0.1,0.6-0.6,0.6c-2.3,0-4.7,0-7,0c-0.4,0-0.5-0.1-0.5-0.5s0-0.6,0.4-0.6
		c0.2,0,0.4-0.1,0.6-0.1c0.8,0,1.5-0.6,1.6-1.4c0-0.1,0-0.1,0-0.2c0.2-2.2,0-4.5,0.1-6.8c0-0.4-0.2-0.5-0.5-0.5c-3.2,0-6.3,0-9.5,0
		c-0.5,0-0.5,0.3-0.5,0.7c0,2.1,0,4.1,0,6.2c0,1.5,0.4,1.8,1.8,2c0.3,0,0.9-0.1,0.8,0.6c0,0.4-0.1,0.5-0.5,0.5c-2.3,0-4.7,0-7,0
		c-0.4,0-0.6-0.1-0.6-0.5s0.2-0.5,0.6-0.6c1.6-0.1,2.2-0.4,2.2-2.5c0-4.3,0-8.5,0-12.8c0-2-0.5-2.6-2.1-2.6c-0.4,0-0.6-0.2-0.6-0.6
		s0.3-0.4,0.6-0.4H76c0.4,0,0.6,0,0.6,0.5s-0.1,0.5-0.5,0.6c-2,0.3-2.1,0.6-2.2,2.6c0,1.5,0,2.9,0,4.4c0,0.5,0.1,0.7,0.7,0.7
		C76.2,261.7,77.8,261.7,79.3,261.7z"/>
	<path class="st0" d="M-44.8,172.8c0.6-0.6,1.3-1,2.2-1.2c4.2-1,8.5-1.6,12.8-1.6c6-0.2,12-0.2,17.9-0.5c4.2-0.2,8.3-0.8,12-2.9
		c2.5-1.5,4.8-3.3,6.9-5.4l1.1-1c0.3,0.5,0,0.8-0.1,1.2c-2.6,5.8-7.2,9-13.1,10.5c-4.4,0.9-9,1.3-13.5,1c-5.2-0.1-10.4-0.3-15.6-0.5
		C-37.8,172.3-41.3,172.4-44.8,172.8z"/>
	<path class="st0" d="M175.9,253c-2.9,0-5.9,0-8.8,0c-0.3,0-0.7-0.1-0.7,0.4c0,0.6,0.3,0.6,0.7,0.6c1.7,0.2,2,0.6,2,2.3
		c0,2.2,0,4.4,0,6.6v6.4c0,2-0.2,2.2-2.1,2.6c-0.5,0.1-0.5,0.3-0.5,0.7c0,0.4,0.3,0.4,0.6,0.4c3,0,6.1,0,9.1,0c5.8,0,9.3-2.9,10-8.2
		c0.7-5.8-3.3-11-9.1-11.8C176.6,253,176.3,253,175.9,253z M183,266.3c-0.3,3-2.8,5.4-5.8,5.6c-1.2,0.2-2.5,0.2-3.7,0
		c-1.3-0.1-1.7-0.5-1.7-1.9v-14c0-1.2,0.5-1.7,1.7-1.9c4.6-0.6,8.3,2.1,9.4,6.8C183.2,262.7,183.3,264.5,183,266.3z"/>
	<path class="st0" d="M49.3,272.3c-1.1-0.3-2-1-2.4-2c-1.1-1.9-2.3-3.8-3.4-5.6c-0.6-1-0.6-1,0.4-1.7c2.6-1.3,3.7-4.5,2.4-7.2
		c-0.4-0.9-1.1-1.6-1.9-2.1c-1-0.6-2.2-0.9-3.4-0.8c-2.8,0-5.6,0.3-8.3,0.2c-0.3,0-0.6,0-0.6,0.5s0.2,0.6,0.6,0.6
		c1.7,0,2.1,0.8,2.1,2.5c0,4.3,0,8.5,0,12.8c0,2-0.2,2.3-2.1,2.6c-0.5,0.1-0.5,0.3-0.5,0.7s0.3,0.4,0.7,0.4h3.4l0,0h1.6
		c0.6,0,1.1,0,1.7,0c0.4,0,0.7,0.1,0.7-0.5c0-0.5-0.2-0.5-0.6-0.6c-1.7-0.3-2-0.6-2.1-2.3s0-3.3,0-5c0-0.6,0.2-0.7,0.7-0.7
		c1.4-0.1,2.7,0.6,3.3,1.8c1.1,2,2.3,4,3.7,5.8c0.9,1.3,2.6,1.9,4.1,1.6c0.2,0,0.5-0.1,0.5-0.4c0-0.2-0.1-0.5-0.3-0.5
		C49.4,272.3,49.4,272.3,49.3,272.3z M40.5,262.8c-0.8,0.1-1.7,0.1-2.5,0.1c-0.5,0-0.7-0.2-0.6-0.7c0-1.1,0-2.1,0-3.2s0-2.1,0-3.1
		c-0.1-1,0.6-1.8,1.5-1.9c0,0,0,0,0,0c2.5-0.4,4.9,0.4,5,3.6c0,0.7,0,1.3-0.1,2C43.6,261.3,42.2,262.6,40.5,262.8L40.5,262.8z"/>
	<path class="st0" d="M26.1,170c-0.8,0.3-1.6,0.5-2.4,0.6c-7.6,1.5-15,4.2-21.8,7.9c-4.3,2.3-9,3.5-13.9,3.5
		c-3.6,0.1-7.1-0.3-10.6-1.3l-0.7-0.2c0,0-0.1-0.1-0.1-0.1c2.4-0.1,4.8-0.2,7.1-0.4c5.9-0.4,11.7-2,17-4.7c6.6-3.7,14-5.6,21.6-5.5
		c0.8,0,1.5,0,2.3,0.1C25,169.8,25.5,169.9,26.1,170z"/>
	<path class="st0" d="M110.9,260.1c-0.7-3.7-3.6-6.5-7.2-7.2c-3.9-0.8-7.4,0-9.9,3.4c-1.6,2.3-2.4,5.1-2.1,7.9
		c0.3,3.6,1.9,6.5,5.3,8.1c3.2,1.6,7.1,1.4,10-0.7c3-2.1,4.1-5.2,4.1-8.5C111.2,262.1,111.1,261.1,110.9,260.1z M107.1,268.8
		c-1.3,2.9-4.6,4.2-7.5,2.9c-0.5-0.2-0.9-0.5-1.3-0.8c-2-1.6-3.3-4-3.4-6.5c-0.3-2.4,0-4.9,1-7.1c2.3-4.9,7.5-4,9.9-1.3
		c1.7,2.1,2.6,4.7,2.4,7.4C108.2,265.2,107.9,267.1,107.1,268.8z"/>
	<path class="st0" d="M30.2,260.3c-0.8-4.1-3.9-6.9-8.4-7.6c-3.9-0.6-7.8,1.3-9.5,4.9c-0.9,1.9-1.4,3.9-1.3,6
		c0.1,8.3,8.3,11.7,14.3,8.6c3.7-1.9,5-5.3,5.1-9.3C30.4,262,30.4,261.1,30.2,260.3z M26.5,268.3c-1.9,4.4-7.1,5.2-10.2,1.5
		c-2.2-2.5-2.5-5.6-2.2-8.8c0.1-1,0.3-1.9,0.6-2.8c0.8-2.3,2.2-4.1,4.8-4.4c2.5-0.3,4.9,0.9,6.2,3c1.3,2,1.9,4.4,1.8,6.8
		C27.5,265.2,27.2,266.8,26.5,268.3z"/>
	<path class="st0" d="M-74.8,177.1c0.3,2.2,0.7,4.3,2.6,5.7c0.8,0.7,1.6,1.4,2.3,2.2c0.2,0.2,0.5,0.3,0.4,0.7
		c-4.4-1.4-7.5-5.8-7.2-10c0-0.2,0.1-0.5,0.1-0.7c0.1-0.6,0.3-0.7,0.9-0.5c1.8,0.6,3.7,0.9,5.6,0.8c5.5,0,11.1-0.2,16.6,0.1
		c3.4,0.1,6.9,0.4,10.3,0.9c2.1,0.4,4.1,1.3,5.8,2.7c-2.4-0.3-4.8-0.6-7.2-0.8c-5-0.7-10-0.6-15,0.2c-4.9,1-10,0.6-14.7-1.1
		C-74.4,177.2-74.5,177.1-74.8,177.1z"/>
	<path class="st0" d="M-30.4,204.3c-1.4,1.3-2.8,2.7-3.9,4.3c-3,4-3.8,9.2-2.2,13.9c0.9,2.7,2,5.3,3.4,7.7c0.3,0.3,0.4,0.7,0.4,1.1
		c-1.6-1.4-2.9-3-4-4.7c-3.2-4.9-4.7-10.8-4.1-16.6c0.6-4.3-0.1-8.8-2-12.7c-1.4-2.7-3.4-4.9-6-6.5c0.9,0.1,1.8,0.4,2.5,0.8
		c4.2,2.3,6.4,6,7.4,10.5c0.6,2.8,0.8,5.8,0.4,8.6c0,0.2-0.1,0.5-0.1,0.7c0,0.1,0,0.3,0,0.4c1.6-3.5,4.4-6.3,8-7.8
		C-30.4,203.9-30.4,204-30.4,204.3z"/>
	<path class="st0" d="M156.5,273c-2.2,0-4.4,0-6.7,0c-0.4,0-0.6,0-0.6-0.5c0-0.5,0.1-0.5,0.5-0.6c1.9-0.3,2.1-0.4,2.1-2.2
		c0.1-4.6,0.1-9.3,0-13.9c-0.1-1.3-0.4-1.6-1.7-1.8c-0.3,0-0.8,0.1-0.9-0.3c-0.2-0.7,0.2-0.8,0.8-0.8c3.7,0,7.3,0,11,0
		c1.7,0,1.7,0,2,1.7c0.1,0.8,0.2,1.6,0.3,2.3c0.1,0.4,0,0.6-0.4,0.6c-0.4,0-0.6,0.1-0.7-0.2l-0.1-0.3c-1.1-2.6-1.4-2.9-4.2-2.9
		c-0.7,0-1.3,0-2,0c-0.7,0-1.3,0.6-1.4,1.3c0,0,0,0.1,0,0.1c0,1.8,0,3.7,0,5.6c0,0.4,0.1,0.6,0.6,0.5c1.2,0,2.4,0,3.6-0.1
		c0.9-0.1,1.4-0.5,1.4-1.4c0-0.4,0.1-0.7,0.6-0.7s0.4,0.4,0.4,0.8c0,1.3,0,2.6,0,3.9c0,0.3,0.2,0.7-0.4,0.7c-0.4,0-0.7,0-0.8-0.5
		c0-0.9-0.6-1.3-1.4-1.4c-1.2-0.1-2.4-0.1-3.6-0.1c-0.4,0-0.5,0.2-0.5,0.5c0,2.3,0,4.6,0,6.9c-0.1,0.7,0.4,1.2,1.1,1.3
		c0,0,0.1,0,0.1,0c1.6,0.2,3.2,0.1,4.8-0.1c1.8-0.3,2.5-1.7,3-3.2c0.1-0.3,0.1-0.8,0.7-0.7s0.7,0.2,0.6,0.7
		c-0.3,1.4-0.6,2.7-0.9,4.1c-0.1,0.5-0.3,0.6-0.8,0.6C160.9,273,158.7,273,156.5,273z"/>
	<path class="st0" d="M126.2,254.3c-1.3-1-3-1.6-4.6-1.5c-2.7,0-5.3,0.3-8,0.2c-0.3,0-0.8-0.2-0.8,0.4s0.3,0.6,0.7,0.7
		c1,0,1.7,0.3,1.9,1.4c0,0.4,0.1,0.8,0.1,1.2v12.6c0,1.9-0.4,2.6-2.2,2.6c-0.4,0-0.5,0.2-0.5,0.6s0.2,0.5,0.6,0.5c1.2,0,2.4,0,3.7,0
		h3.7c0.4,0,0.6,0,0.6-0.5c0-0.5-0.1-0.6-0.5-0.6c-0.2,0-0.3,0-0.5-0.1c-1.7-0.2-2.1-0.7-2.2-2.4c0-1.4,0-2.9,0-4.3
		c0-1.1,0-1.1,1.1-1c1.9,0.3,3.9,0,5.6-0.9C128.3,261.4,129,256.6,126.2,254.3z M125,259.3c0,2.1-1.6,3.8-3.7,3.8c0,0,0,0-0.1,0
		c-0.8,0.1-1.6,0-2.3,0c-0.6,0-0.8-0.2-0.7-0.8c0-1.1,0-2.2,0-3.3c0-1.1,0-2,0-3c-0.1-1,0.6-1.9,1.5-2c0,0,0.1,0,0.1,0
		c2.8-0.4,5.1,0.4,5.2,4.1C125,258.5,125,258.9,125,259.3L125,259.3z"/>
	<path class="st0" d="M147.6,271.9c-1.1-0.1-1.9-0.9-2.2-1.9c-0.6-1.9-1.3-3.7-2-5.6c-1.3-3.7-2.6-7.4-4-11
		c-0.1-0.2-0.1-0.8-0.4-0.7c-0.7,0.3-1.6,0.3-2,1.3c-2.1,5.1-4.3,10.3-6.5,15.4c-0.5,1.3-1.2,2.4-2.8,2.5c-0.4,0-0.5,0.3-0.4,0.7
		s0.3,0.4,0.6,0.4c1.9,0,3.8,0,5.6,0c0.3,0,0.5-0.1,0.5-0.4s0.1-0.6-0.3-0.7c-0.2,0-0.5-0.1-0.7-0.1c-1.1-0.2-1.3-0.6-0.9-1.6
		c0.4-1.2,1-2.4,1.3-3.6c0.1-0.7,0.8-1.2,1.6-1.1c1.8,0,3.7,0,5.6,0c0.4-0.1,0.8,0.2,0.9,0.6c0,0,0,0,0,0c0.3,1.1,0.7,2.3,1.1,3.4
		c0.6,1.7,1.1,2.1-1.3,2.5c-0.4,0-0.5,0.2-0.5,0.6c0,0.4,0.3,0.5,0.6,0.5c1,0,2.1,0,3.1,0l0,0c1,0,2,0,3,0c0.3,0,0.8,0.3,0.9-0.4
		C148.4,272,148.1,271.9,147.6,271.9z M140.2,264.2h-5.1c-0.5,0-0.6-0.3-0.4-0.7c1-2.5,2-5,3.1-7.8c1,2.9,1.9,5.5,2.8,8
		C140.7,264.1,140.6,264.2,140.2,264.2z"/>
	<path class="st0" d="M-45,231.8c0.4-0.2,0.9-0.2,1.2,0.1c6.3,2.5,12.6,5,18.8,7.9c2.1,1,4.5,0.9,6.6-0.2c3.4-1.8,6.8-3.5,10.2-5.2
		c0.3-0.1,0.7-0.6,0.9-0.2c0.2,0.3-0.2,0.7-0.5,0.9c-2,1.7-3.9,3.3-5.9,5c-1.4,1.3-2.8,2.5-4.2,3.7c-1.2,1.3-3.2,1.5-4.7,0.6
		C-30.1,240.3-37.5,236-45,231.8z"/>
	<path class="st0" d="M57.9,253c3,0,5.8,0.1,8.6-0.2c0.7-0.1,1.1,0,1.1,0.9c0,1,0.1,2,0.3,3c0,0.3,0.1,0.6-0.4,0.7
		c-0.5,0.1-0.6,0-0.8-0.4c-0.7-2.1-2.9-3.2-5-2.7c-0.5,0.1-0.8,0.5-0.9,1c-0.2,0.6-0.2,1.2-0.2,1.8c0,4.1,0,8.3,0,12.4
		c0,1.9,0.3,2.3,2.2,2.5c0.4,0,0.8-0.1,0.8,0.6S63,273,62.7,273h-7c-0.3,0-0.8,0.3-0.9-0.4c-0.1-0.6,0.3-0.6,0.7-0.7
		c2-0.2,2.3-0.6,2.3-2.6c0-4.1,0-8.2,0-12.3c0-0.3,0-0.6-0.1-0.9c-0.2-1.6-0.5-1.8-2.1-1.8c-0.4,0-0.8,0-1.1,0
		c-1.6-0.1-3,0.9-3.4,2.4c-0.2,0.5-0.3,1-1,0.8c-0.7-0.2-0.2-0.8-0.1-1.1c0.1-0.8,0.3-1.7,0.4-2.5s0.4-1.2,1.2-1.1
		C53.7,253,55.8,253.1,57.9,253z"/>
	<path class="st0" d="M197.8,263.3c0-5.1,2.9-9.1,7.4-10.3c2.3-0.6,4.6-0.4,6.8,0.3c0.3,0.1,0.7,0.3,1,0.3c1.4,0.1,1.7,1,1.8,2.2
		c0,0.8,0.2,1.6,0.3,2.4c0.1,0.4,0.1,0.7-0.4,0.8s-0.7-0.1-0.8-0.5c-0.6-2.3-2.5-4.1-4.8-4.5c-3.5-0.7-7,1.5-7.9,4.9
		c-1.3,3.5-0.7,7.4,1.6,10.4c2.3,3.2,5.9,3.2,9.2,1.6c1-0.5,1.8-1.2,2.5-2c0.1-0.2,0.5-0.3,0.7-0.1c0,0,0,0,0.1,0
		c0.3,0.2,0.2,0.5,0,0.7c-2,2.7-5.2,4.1-8.6,3.8c-3.8-0.3-6.6-2-8.1-5.6C198,266.3,197.7,264.8,197.8,263.3z"/>
	<path class="st0" d="M-13.8,156.6c-0.3,1.1-0.9,2.1-1.8,2.9c-2.3,2.2-5.2,3.7-8.3,4.4c-4.5,1.1-9.2,1.5-13.9,1.3
		c-5.4,0-10.8,0.1-16.1,1.8c-0.3,0.1-0.6,0.2-0.9,0.1c1.9-1.3,4-2.2,6.3-2.7c3.8-1,7.7-1.4,11.6-1.4c4.6,0.1,9.2-0.3,13.7-1.2
		c3-0.7,6-1.7,8.2-4c0.2-0.2,0.3-0.4,0.5-0.6C-14.2,156.9-14.2,156.7-13.8,156.6z"/>
	<path class="st0" d="M193.4,263.1v6.2c0,2,0.2,2.3,2.2,2.7c0.4,0.1,0.5,0.2,0.5,0.6c0,0.4-0.2,0.5-0.6,0.5h-6.9
		c-0.3,0-0.6,0-0.6-0.4c0-0.4,0-0.6,0.4-0.6c2.1-0.5,2.2-0.6,2.2-2.8v-12.3c0-0.2,0-0.4,0-0.7c0-1.5-0.4-1.9-1.9-2.1
		c-0.4-0.1-0.8,0-0.8-0.7c0-0.6,0.5-0.4,0.8-0.4c2.2,0,4.3,0,6.5,0c0.3,0,0.7-0.1,0.7,0.4c0,0.6-0.3,0.6-0.7,0.7
		c-1.6,0.2-2,0.6-2,2.3C193.4,258.6,193.4,260.8,193.4,263.1z"/>
	<path class="st0" d="M209.8,278.8c-2-0.6-4.1-0.2-6.2-0.3c-0.2,0-0.4,0.1-0.4,0.3c0,0.2,0.2,0.3,0.4,0.3c0.7,0,0.8,0.4,0.8,1
		c0,2.4,0,4.7,0,7c0,0.6,0,1.1-0.8,1c-0.2,0-0.4,0.1-0.4,0.3s0.3,0.2,0.5,0.2h2.6c0.9,0,1.7,0,2.5,0c2.3,0.1,4.3-1.5,4.7-3.8
		C214.1,282.2,212.5,279.5,209.8,278.8z M211.1,286.5c-1,1.3-2.7,1.9-4.3,1.5c-0.4-0.2-0.4-0.5-0.4-0.8c0-1.2,0-2.4,0-3.7
		s0-2.3,0-3.5c0-0.7,0.3-1,1-0.9c1.1,0,2.1,0.4,2.9,1.2C211.7,282.1,212,284.5,211.1,286.5z"/>
	<path class="st0" d="M157.3,280.9c-0.1-1.2-1.1-2.1-2.2-2.3c-1-0.2-2.1-0.2-3.1-0.1h-2.3c-0.2,0-0.4,0-0.4,0.3
		c0,0.2,0.1,0.3,0.3,0.4c0,0,0,0,0.1,0c0.9,0,0.9,0.6,0.9,1.2c0,2.1,0,4.3,0,6.4c0,0.7,0.1,1.4-0.9,1.5c-0.2,0-0.3,0.2-0.3,0.3
		c0,0.3,0.2,0.2,0.4,0.2h3.8c0.2,0,0.3,0,0.4-0.2c0-0.2-0.1-0.3-0.2-0.4c0,0-0.1,0-0.1,0c-1,0-1.1-0.7-1-1.4c0-0.6,0-1.2,0-1.8
		c0-0.5,0.1-0.6,0.6-0.6c0.9,0.1,1.8-0.1,2.6-0.5C156.8,283.3,157.4,282.1,157.3,280.9z M155.1,282.5c-0.3,0.8-1.2,1.2-2,1.2
		c-0.6,0-0.7-0.2-0.7-0.7s0-1,0-1.5c0-0.4,0-0.7,0-1s-0.2-1,0.4-1.2c0.6-0.2,1.3-0.1,1.9,0.3C155.3,280.4,155.4,281.5,155.1,282.5
		L155.1,282.5z"/>
	<path class="st0" d="M163.3,285.8c0.8-2.2,1.6-4.1,2.3-6.1c0.2-0.5-0.2-0.5-0.5-0.5c-0.3,0-0.5,0-0.5-0.4c0-0.4,0.3-0.2,0.5-0.2
		h2.4c0.2,0,0.4-0.1,0.5,0.2c0.1,0.2,0,0.3-0.2,0.4c0,0-0.1,0-0.1,0c-0.8,0-1,0.6-1.2,1.1c-1,2.6-1.9,5.2-2.9,7.8
		c-0.1,0.4-0.2,0.9-0.8,0.9s-0.6-0.5-0.7-0.9c-0.9-2.6-1.8-5.2-2.7-7.8c-0.2-0.6-0.3-1.2-1.1-1.2c-0.2,0-0.3-0.2-0.3-0.4
		s0.2-0.2,0.4-0.2h3.8c0.1,0,0.3,0,0.4,0.2c0,0.2-0.1,0.3-0.3,0.4c0,0,0,0-0.1,0c-1.2-0.1-0.9,0.6-0.7,1.3
		C162,282.1,162.6,283.8,163.3,285.8z"/>
	<path class="st0" d="M174,283.8c0,1.1,0,2.3,0,3.4c0,0.7,0.1,1.1,0.9,1.1c0.2,0,0.5,0,0.5,0.3c0,0.3-0.3,0.2-0.5,0.2h-3.8
		c-0.2,0-0.5,0.1-0.5-0.3s0.2-0.3,0.5-0.3c0.8,0,0.9-0.4,0.9-1.1c0-2.3,0-4.6,0-6.9c0-0.7-0.2-1-0.9-1c-0.9,0-1.8-0.1-2,1.1
		c0,0.2-0.2,0.2-0.4,0.2c-0.2,0-0.2-0.3-0.2-0.5c0.1-0.6,0.2-1.1,0.2-1.7s0.4-0.5,0.6-0.2c0.2,0.3,0.6,0.3,0.9,0.3h5.5
		c0.2,0,0.5,0.1,0.6,0c1.2-1,0.9,0.2,1,0.7c0.1,0.3,0.1,0.6,0.1,0.9s0.1,0.4-0.2,0.5s-0.4,0-0.5-0.3c-0.4-0.9-1.5-1.3-2.5-1
		c-0.4,0.1-0.4,0.5-0.4,0.8C174,281.4,174,282.6,174,283.8z"/>
	<path class="st0" d="M198.8,283.7c0,1.1,0,2.3,0,3.4c0,0.6,0.1,1.1,0.9,1.1c0.2,0,0.5,0,0.5,0.3s-0.3,0.2-0.5,0.2H196
		c-0.2,0-0.5,0.1-0.5-0.2s0.2-0.4,0.4-0.3c0.9,0,0.9-0.5,0.9-1.2c0-2.2,0-4.4,0-6.6c0-0.4,0.2-1-0.5-1.1c-0.8-0.3-1.7-0.1-2.2,0.6
		c-0.1,0.1-0.1,0.3-0.2,0.4c0,0.3-0.2,0.2-0.4,0.2s-0.3-0.2-0.2-0.4c0-0.2,0.1-0.5,0.1-0.7c0.2-0.6-0.3-1.5,1.3-1
		c2.1,0.5,4.3,0.5,6.3,0c1.6-0.4,1.1,0.4,1.3,1.1c0,0.2,0.1,0.4,0.1,0.5c0,0.2,0.1,0.5-0.3,0.6s-0.4-0.2-0.4-0.4
		c-0.5-0.9-1.5-1.3-2.5-0.9c-0.4,0.2-0.4,0.5-0.4,0.9L198.8,283.7z"/>
	<path class="st0" d="M186.2,283.7c0-1.2,0-2.3,0-3.5c0-0.6,0-1.1-0.9-1.2c-0.2,0-0.4-0.1-0.4-0.3s0.2-0.3,0.4-0.3
		c1.2,0,2.4,0,3.6,0c0.2,0,0.4,0,0.4,0.2c0,0.2-0.2,0.3-0.4,0.3c-0.8,0-0.9,0.5-0.9,1.2c0,2.2,0,4.4,0,6.7c0,0.8,0.3,1.1,1.1,1.1
		c1.2,0.2,2.4-0.6,2.7-1.8c0.1-0.3,0.2-0.4,0.5-0.3s0.2,0.3,0.1,0.5c-0.2,2.3-0.2,2.3-2.6,2.3c-1.5,0-3,0-4.5,0
		c-0.2,0-0.6,0.1-0.6-0.2s0.3-0.4,0.5-0.3c0.6,0.1,0.7-0.4,0.7-0.8C186.1,286.2,186.2,284.9,186.2,283.7z"/>
	<path class="st0" d="M-70.9,197.8c0-0.7,0.1-1.4,0-2.1c-0.1-0.7,0.3-1.4,0.9-1.7c0.3-0.2,0.7-0.8,1.2-0.2c0.5,0.6,0.6,1.3,0,1.7
		c-1.2,0.9-1.6,2.2-2,3.5C-71.2,198.6-70.9,198.2-70.9,197.8z"/>
	<path class="st0" d="M-77.5,218.4c-0.6-0.1-1.3-0.3-1.8-0.6c-0.4-0.3-0.8-0.6-0.7-1.1c0.1-0.5,0.6-0.8,1.1-0.8
		c0.6,0,1.1,0.1,1.3,0.8C-77.4,217.3-77.4,217.9-77.5,218.4z"/>
	<path class="st0" d="M-42,243.2l-0.2,0.2c-0.3,0-0.6-0.1-0.9-0.3C-42.7,242.9-42.3,243-42,243.2z"/>
	<path class="st0" d="M-1.8,188.6l0.2,0.2c-0.2,0.2-0.5,0.4-0.7,0.4C-2.2,188.9-2,188.7-1.8,188.6z"/>
	<path class="st0" d="M-30.4,204.3l-0.2-0.2c0.2-0.2,0.5-0.3,0.6-0.2S-30.2,204.1-30.4,204.3z"/>
</g>
</svg>
