<svg xmlns="http://www.w3.org/2000/svg" viewBox="0 0 278.67 267.57"><defs><style>.a{fill:#465461;}.b{fill:#edf1f4;}.c{fill:#f9fbfd;}.d{fill:#f9fcf9;}.e{fill:#3f7cd7;}.f{fill:#465566;}.g{fill:#407cd4;}.h{fill:#44618f;}.i{fill:#e3fbff;}.j{fill:#364a6c;}.k{fill:#fafcfa;}.l{fill:#44505a;}.m{fill:#495668;}.n{fill:#456190;}.o{fill:#35618a;}.p{fill:#355581;}.q{fill:#4c5261;}.r{fill:#485360;}</style></defs><title>Genie 404 error illustration</title><path class="a" d="M304.05,145.84c2-4.13,7.38-7.3,11.8-4.85a19.08,19.08,0,0,0,9.83,2.48c2.47-.08,3.74,2.31,4.82,4.13,2.84,5.05,5.16,10.37,8.14,15.35-1,.07-2.05.14-3.06.23a53.19,53.19,0,0,0-4.05-7.42c-4.45-.89-9.19,1.17-12.44,4.18-.25,3.12.67,6.16,1.22,9.2l-1.94,1.79c-1.65-6.21-3.53-12.38-4.72-18.7-.77-3.3,1.83-6,3-8.83-2.93-.12-6.58-1.07-8.77,1.53-2.81,3.4-1.33,8.41-3.46,12.1a6.67,6.67,0,0,1-7,2.65c-3-1-5.35-3.33-7.72-5.36-1.36.18-2.7.37-4.05.58-1.63-1.52-3.6-2.87-4.46-5a43.29,43.29,0,0,1,1-8.71c3,1.12,6.23,2.09,8.68,4.29,2.79,2.23.15,6.82,3.05,9.07,2,2.33,6.62,3.83,8.54.62C303.27,152.1,303.06,148.85,304.05,145.84Zm12,4.16a63.12,63.12,0,0,0,1.45,7.19,35.94,35.94,0,0,1,12.37-4.72c-1.26-2.15-1.93-4.91-4.07-6.34C322.29,145.25,317.54,146.33,316.05,150Z" transform="translate(-195.59 -140.13)"/><path class="b" d="M307.89,144.93c2.19-2.6,5.84-1.65,8.77-1.53-1.18,2.85-3.78,5.53-3,8.83,1.19,6.32,3.07,12.49,4.72,18.7a132.31,132.31,0,0,0-8,11.59,38.46,38.46,0,0,0-4.84-2.93c-2,.22-2.48,2.21-3.19,3.72l1.15,1.54c.34.81,1.05,2.41,1.4,3.22-1.51-.93-3-1.87-4.53-2.78a19,19,0,0,0,.92,6.13c2.44.85,4.31-1.43,6.28-2.46-1.09,3.69-2.27,7.37-3.25,11.11-20.75,4.84-41.54,13.7-55.8,30.08-10,11.44-16,27.86-11.09,42.8,6.51,18.43,23.62,30.85,41.54,36.94a46.72,46.72,0,0,1,8-6.38c-2.45,5.07-7.82,10.6-4.62,16.54,2,3.75,7.07,2.38,10,.5,4.95-2.81,6-9,6.67-14.11,1.6-13.73-5.63-26.47-13.8-36.87-4-5.38-9.9-8.82-14.47-13.63,3.77-.79,6.66,2.34,9.35,4.45,8.9,8.23,16.17,18.51,20,30.09,3,9.08,2,18.93-1.08,27.86,8.59,8.67,17.48,18.06,20.65,30.22,3,11.94-1.48,23.87-3.34,35.62-.36,3.07-1.16,7.06,1.87,9.1,4.45,1,8.79-1.11,12.51-3.28,7.79-4.72,14.73-10.71,21.3-17,19.36-19.08,34.8-43.13,39.9-70.13.58-4.15,2.79-9.38-1.46-12.28a74.56,74.56,0,0,0,14.73-1.82c8.12-1.73,16.8-4.61,22-11.54,5.56-7.34,4.78-17.35,2.82-25.82-5.11-19.08-21.24-33.34-38.74-41.24,1.55-10.73-.1-22.45-7.4-30.86-10.85-14.18-32.92-17.65-47.5-7.27-15,9.42-20.41,30.78-11.86,46.29,2.82,5.71,7.76,9.86,12.35,14.11l-1.16-.36c-1.55-.81-3.09-1.65-4.56-2.59a54.34,54.34,0,0,1-9.21-11.45q-1.12-2.19-2.07-4.43a53.2,53.2,0,0,1-1.05-19.8c.25-2.47.28-5,.31-7.44a44.11,44.11,0,0,0,7.76-8c4.1-5,9.79-8.28,15.67-10.77-1.32-1.5-2.63-3-3.81-4.63-3-5-5.3-10.3-8.14-15.35,8-.82,16.09.1,24.13-.16,16.53-.45,32.44,5,47.55,11.11,9.32,4.86,19.55,7.7,28.58,13.16,8.89,4.11,16,11,22.9,17.77,5.84,5.81,9.12,13.49,12.69,20.77,7.79,16.95,8.08,36.06,7.83,54.36.52,12.32-1.3,24.6-4.24,36.52-2.05,6.51-4.66,12.83-7,19.24-4.84,10.45-11.84,19.76-19.1,28.64-24.85,25.89-58.58,42.7-93.94,48.24-12.2,3.05-24.82,2.56-37.28,2.26-.39-1.05-.8-2.08-1.22-3.11-.14-.31-.43-.95-.57-1.28-3.29.16-6.57.76-9.87.4a37,37,0,0,1-4.45-4.12,41.12,41.12,0,0,1-8.18,7.4q.88-2.32,1.84-4.61L288,393a101.39,101.39,0,0,1-12.21-7.74c-8.36-6.7-17.1-13.09-24.07-21.31-4.36-5.2-8.74-10.4-13.07-15.62-8-10.66-14.09-22.6-21-34-5.42-9.95-9-20.75-12.89-31.35-3.57-9.52-5.05-19.64-7.41-29.49-2-8.12-1.73-16.52-1.72-24.79-.13-17.34,10.29-33.06,23.35-43.68,6.63-5.07,13.47-10,21-13.66,14.73-6.74,29.72-13.56,45.74-16.52,1.35-.21,2.69-.4,4.05-.58,2.37,2,4.68,4.36,7.72,5.36a6.67,6.67,0,0,0,7-2.65C306.56,153.34,305.08,148.33,307.89,144.93Z" transform="translate(-195.59 -140.13)"/><path class="c" d="M316.05,150c1.49-3.67,6.24-4.75,9.75-3.87,2.14,1.43,2.81,4.19,4.07,6.34a35.94,35.94,0,0,0-12.37,4.72A63.12,63.12,0,0,1,316.05,150Z" transform="translate(-195.59 -140.13)"/><path class="c" d="M584,271" transform="translate(-195.59 -140.13)"/><path class="c" d="M600.64,271" transform="translate(-195.59 -140.13)"/><path class="d" d="M319.09,159.94c3.25-3,8-5.07,12.44-4.18a53.19,53.19,0,0,1,4.05,7.42c-5.69,0-10.89,2.54-15.27,6C319.76,166.1,318.84,163.06,319.09,159.94Z" transform="translate(-195.59 -140.13)"/><path class="e" d="M320.31,169.14c4.38-3.42,9.58-6,15.27-6,1-.09,2-.16,3.06-.23,1.18,1.61,2.49,3.13,3.81,4.63-5.88,2.49-11.57,5.78-15.67,10.77-2.21-.42-4.42-1.17-6.68-.93a35.93,35.93,0,0,0-5.72,3.1c.64,4.66,1.38,9.48,4.33,13.31a53.2,53.2,0,0,0,1.05,19.8c-4.58-2.83-8.56-6.51-13.1-9.39-1.81,1.86.35,3.79,1.46,5.34a25.3,25.3,0,0,0,13.71,8.48A54.34,54.34,0,0,0,331,229.51c-.47,1.84-.92,3.67-1.38,5.51,3-.08,6-.24,9-.33,3.24.79,6.48,1.58,9.71,2.4.21,4.95-4.28,7.26-6.84,10.75-3,7.56.25,15.68,3.86,22.42,2.63,4.68.51,10.41,2.64,15.2a19,19,0,0,0,3.87,2.1A51.86,51.86,0,0,0,363.44,285c8.65,3.06,17.63,6.07,26.94,5.57,4.25,2.9,2,8.13,1.46,12.28-5.1,27-20.54,51.05-39.9,70.13-6.57,6.27-13.51,12.26-21.3,17-3.72,2.17-8.06,4.26-12.51,3.28-3-2-2.23-6-1.87-9.1,1.86-11.75,6.33-23.68,3.34-35.62C316.43,336.4,307.54,327,299,318.34c3-8.93,4.08-18.78,1.08-27.86-3.81-11.58-11.08-21.86-20-30.09-2.69-2.11-5.58-5.24-9.35-4.45,4.57,4.81,10.44,8.25,14.47,13.63,8.17,10.4,15.4,23.14,13.8,36.87-.7,5.13-1.72,11.3-6.67,14.11-2.89,1.88-7.94,3.25-10-.5-3.2-5.94,2.17-11.47,4.62-16.54a46.72,46.72,0,0,0-8,6.38c-17.92-6.09-35-18.51-41.54-36.94-4.94-14.94,1.12-31.36,11.09-42.8,14.26-16.38,35-25.24,55.8-30.08,1-3.74,2.16-7.42,3.25-11.11-1.3-1.44-2.7-2.76-4.07-4.11l-1.15-1.54c.71-1.51,1.23-3.5,3.19-3.72a38.46,38.46,0,0,1,4.84,2.93,132.31,132.31,0,0,1,8-11.59Z" transform="translate(-195.59 -140.13)"/><path class="e" d="M391.17,210.19c17.5,7.9,33.63,22.16,38.74,41.24,2,8.47,2.74,18.48-2.82,25.82-5.18,6.93-13.86,9.81-22,11.54-14.92,1.09-30.32-1.39-43.81-8-10.26-4.91-18-15.37-18.21-26.92,0-3.35,1.15-8.43,5.49-7.87,3.81,3.39,5.28,8.65,9.11,12,2.64,1.09,4.77-1.45,6.87-2.62a68.52,68.52,0,0,0-.57,9.81c1.84-2.87,4-6.09,3.31-9.69-.16-2.32-2.89-2.63-4.45-3.7a43.39,43.39,0,0,1-.71-14.9c4.66-1.18,9.4-2.5,13.44-5.21C383.24,226.78,388,218.54,391.17,210.19Z" transform="translate(-195.59 -140.13)"/><path class="f" d="M336.27,172.06c14.58-10.38,36.65-6.91,47.5,7.27,7.3,8.41,9,20.13,7.4,30.86-3.14,8.35-7.93,16.59-15.59,21.54-4,2.71-8.78,4-13.44,5.21a43.39,43.39,0,0,0,.71,14.9c-1.25,1.41-2.49,2.83-3.75,4.24-4-5.95-8.53-11.78-10.08-18.94-4-1.84-8.16-3.18-12.26-4.68-4.59-4.25-9.53-8.4-12.35-14.11C315.86,202.84,321.22,181.48,336.27,172.06ZM339,184.42c-8.45,7.25-9.78,20.36-4.36,29.78,4.46,7.71,13.42,12.42,22.23,12.31,5.67-.49,11.44-2.16,15.58-6.3,8.72-7.38,10.88-21.13,5-30.89a25.73,25.73,0,0,0-16.67-12.12C353,175.88,344,178,339,184.42Z" transform="translate(-195.59 -140.13)"/><path class="g" d="M339,184.42c5-6.38,14.07-8.54,21.76-7.22,5.23,2.93,10.67,6.11,14,11.3,5.95,9.08,4.81,22.15-2.77,30-3.93,4.35-9.51,6.64-15.08,8-8.81.11-17.77-4.6-22.23-12.31-5.42-9.42-4.09-22.53,4.36-29.78-1.77,5.22-4.68,10.73-2.84,16.35A16.29,16.29,0,0,0,346.26,212c3.95,1.59,7.61,4.33,11.9,4.88,5.42-1.07,9-5.72,12.08-9.94a35.8,35.8,0,0,1-2.32-8c2.35-9.86-7-19.55-16.75-18.79C346.78,180.43,342.94,182.78,339,184.42Z" transform="translate(-195.59 -140.13)"/><path class="h" d="M314.38,180.52a35.93,35.93,0,0,1,5.72-3.1c2.26-.24,4.47.51,6.68.93a44.11,44.11,0,0,1-7.76,8c0,2.48-.06,5-.31,7.44C315.76,190,315,185.18,314.38,180.52Z" transform="translate(-195.59 -140.13)"/><path class="h" d="M530.43,344.91" transform="translate(-195.59 -140.13)"/><path class="i" d="M360.71,177.2a25.73,25.73,0,0,1,16.67,12.12c5.9,9.76,3.74,23.51-5,30.89-4.14,4.14-9.91,5.81-15.58,6.3,5.57-1.4,11.15-3.69,15.08-8,7.58-7.82,8.72-20.89,2.77-30C371.38,183.31,365.94,180.13,360.71,177.2Z" transform="translate(-195.59 -140.13)"/><path class="i" d="M335.6,232.1l1.16.36c4.1,1.5,8.29,2.84,12.26,4.68,1.55,7.16,6.06,13,10.08,18.94,1.26-1.41,2.5-2.83,3.75-4.24,1.56,1.07,4.29,1.38,4.45,3.7.67,3.6-1.47,6.82-3.31,9.69a68.52,68.52,0,0,1,.57-9.81c-2.1,1.17-4.23,3.71-6.87,2.62-3.83-3.36-5.3-8.62-9.11-12-4.34-.56-5.52,4.52-5.49,7.87.2,11.55,8,22,18.21,26.92,13.49,6.58,28.89,9.06,43.81,8a74.56,74.56,0,0,1-14.73,1.82c-9.31.5-18.29-2.51-26.94-5.57-5.35-2.41-10.09-5.94-14.64-9.58,0,4.25.23,8.67,3.11,12.1a19,19,0,0,1-3.87-2.1c-2.13-4.79,0-10.52-2.64-15.2-3.61-6.74-6.85-14.86-3.86-22.42,2.56-3.49,7-5.8,6.84-10.75-3.23-.82-6.47-1.61-9.71-2.4C337.63,233.83,336.62,233,335.6,232.1Z" transform="translate(-195.59 -140.13)"/><path class="j" d="M339,184.42c4-1.64,7.83-4,12.22-4.3,9.78-.76,19.1,8.93,16.75,18.79-1.71,4.25-3.79,8.79-7.86,11.27s-9.19,2.23-13.8,1.8a16.29,16.29,0,0,1-10.15-11.21C334.27,195.15,337.18,189.64,339,184.42Zm7.79-.63a13.68,13.68,0,0,0-8.44,10.59c-1.56,8.19,5.75,16.24,14,15.93,8.49.05,15.35-9.05,13-17.21C363.43,185.33,354.12,180.46,346.74,183.79Z" transform="translate(-195.59 -140.13)"/><path class="k" d="M346.74,183.79c7.38-3.33,16.69,1.54,18.54,9.31,2.34,8.16-4.52,17.26-13,17.21-8.22.31-15.53-7.74-14-15.93A13.68,13.68,0,0,1,346.74,183.79Zm3.66,8.36c-3.07,1.07-4.56,5.78-1.79,8,2.49,3.09,8.22,1.37,8.38-2.64C357.73,194,353.74,190.51,350.4,192.15Z" transform="translate(-195.59 -140.13)"/><path class="k" d="M662.84,271" transform="translate(-195.59 -140.13)"/><path class="l" d="M303.5,184.85c1.37,1.35,2.77,2.67,4.07,4.11-2,1-3.84,3.31-6.28,2.46a19,19,0,0,1-.92-6.13c1.52.91,3,1.85,4.53,2.78C304.55,187.26,303.84,185.66,303.5,184.85Z" transform="translate(-195.59 -140.13)"/><path class="m" d="M350.4,192.15c3.34-1.64,7.33,1.81,6.59,5.36-.16,4-5.89,5.73-8.38,2.64C345.84,197.93,347.33,193.22,350.4,192.15Z" transform="translate(-195.59 -140.13)"/><path class="n" d="M360.06,210.18c4.07-2.48,6.15-7,7.86-11.27a35.8,35.8,0,0,0,2.32,8c-3.06,4.22-6.66,8.87-12.08,9.94-4.29-.55-8-3.29-11.9-4.88C350.87,212.41,356,212.75,360.06,210.18Z" transform="translate(-195.59 -140.13)"/><path class="o" d="M308.12,209.58c-1.11-1.55-3.27-3.48-1.46-5.34,4.54,2.88,8.52,6.56,13.1,9.39q.94,2.24,2.07,4.43A25.3,25.3,0,0,1,308.12,209.58Z" transform="translate(-195.59 -140.13)"/><path class="p" d="M331,229.51c1.47.94,3,1.78,4.56,2.59,1,.86,2,1.73,3.07,2.59-3,.09-6,.25-9,.33C330.12,233.18,330.57,231.35,331,229.51Z" transform="translate(-195.59 -140.13)"/><path class="q" d="M348.8,275.46c4.55,3.64,9.29,7.17,14.64,9.58a51.86,51.86,0,0,1-11.53,2.52C349,284.13,348.79,279.71,348.8,275.46Z" transform="translate(-195.59 -140.13)"/><path class="r" d="M296.48,391.4a37,37,0,0,0,4.45,4.12c3.3.36,6.58-.24,9.87-.4.14.33.43,1,.57,1.28-4.41,2.37-8.64,5.11-13.4,6.74,1.26,1.25,2.53,2.51,3.75,3.82a27.79,27.79,0,0,1-9.79.56c.95-1.64,2-3.22,3-4.8-2-.32-4-.58-5.93-.82.09-.41.25-1.21.34-1.6a37.73,37.73,0,0,1-3.21-3.11A39.64,39.64,0,0,1,288,393l2.15,1.16q-1,2.28-1.84,4.61A41.12,41.12,0,0,0,296.48,391.4Z" transform="translate(-195.59 -140.13)"/></svg>